Coordinates
version=1
nRows=34
nColumns=34
inDegrees=no

Units are S.I. units (second, meters, Newtons, ...)
If the header above contains a line with 'inDegrees', this indicates whether rotational values are in degrees (yes) or radians (no).

endheader
time	pelvis_tilt	pelvis_list	pelvis_rotation	pelvis_tx	pelvis_ty	pelvis_tz	hip_flexion_r	hip_adduction_r	hip_rotation_r	knee_angle_r	ankle_angle_r	subtalar_angle_r	mtp_angle_r	hip_flexion_l	hip_adduction_l	hip_rotation_l	knee_angle_l	ankle_angle_l	subtalar_angle_l	mtp_angle_l	lumbar_extension	lumbar_bending	lumbar_rotation	arm_flex_r	arm_add_r	arm_rot_r	elbow_flex_r	pro_sup_r	arm_flex_l	arm_add_l	arm_rot_l	elbow_flex_l	pro_sup_l
1.59	-0.418858	0.0252205	0.0722167	-0.370556	0.928185	-0.601545	0.894045	-0.283939	-0.353495	0.381871	-0.460158	-0.0304703	-0.0993494	0.943831	-0.149749	-0.22617	0.402148	-0.567933	-0.0100468	-0.0993494	-0.0888904	-0.0120031	-0.0234759	-0.556567	-0.155791	-0.331157	0.505372	1.78633	-0.512263	-0.276611	-0.240555	0.400959	1.78356
1.6	-0.422328	0.0254039	0.0627519	-0.36194	0.896553	-0.601464	0.967981	-0.280089	-0.288032	0.547566	-0.237962	-0.07333	-0.0993494	0.996086	-0.15701	-0.175385	0.548196	-0.325239	-0.0281548	-0.0993494	-0.0897644	-0.0104718	-0.0161425	-0.58559	-0.150304	-0.334972	0.500819	1.7776	-0.545576	-0.26676	-0.236545	0.394445	1.76876
1.61	-0.428546	0.0249493	0.0542851	-0.354139	0.866212	-0.601418	1.04352	-0.275868	-0.229448	0.702505	-0.0544427	-0.113028	-0.0993494	1.05375	-0.163937	-0.130377	0.687992	-0.120252	-0.0454828	-0.0993494	-0.0905695	-0.00855633	-0.0100033	-0.606332	-0.145091	-0.338956	0.493296	1.77002	-0.57112	-0.255696	-0.238097	0.386787	1.75545
1.62	-0.437382	0.023877	0.0468512	-0.347135	0.837188	-0.601409	1.12031	-0.271366	-0.177797	0.846516	0.0911784	-0.149349	-0.0993494	1.11649	-0.170521	-0.0911436	0.82129	0.0472403	-0.0618999	-0.0993494	-0.0914375	-0.0062672	-0.00508641	-0.618795	-0.140151	-0.343088	0.482854	1.76361	-0.588883	-0.243438	-0.245281	0.378078	1.74366
1.63	-0.448424	0.0222517	0.0405239	-0.340869	0.809549	-0.601446	1.19727	-0.266829	-0.133143	0.979211	0.201551	-0.181638	-0.0993494	1.18328	-0.176749	-0.0575933	0.947509	0.178527	-0.0769989	-0.0993494	-0.0927451	-0.00363992	-0.00144236	-0.623035	-0.135499	-0.347253	0.469682	1.75835	-0.598871	-0.230056	-0.2582	0.368609	1.73351
1.64	-0.460942	0.0202019	0.0353697	-0.335228	0.783396	-0.601542	1.27261	-0.262634	-0.0954305	1.1001	0.281654	-0.20882	-0.0993494	1.25224	-0.182614	-0.029464	1.06582	0.276779	-0.0900622	-0.0993494	-0.0951141	-0.000753692	0.00090862	-0.619239	-0.131186	-0.351141	0.454172	1.75401	-0.60117	-0.215719	-0.2768	0.358923	1.7251
1.65	-0.474001	0.0179204	0.0313925	-0.330062	0.758843	-0.601707	1.34414	-0.259196	-0.0643297	1.2088	0.338193	-0.229726	-0.0993494	1.32091	-0.188119	-0.00629608	1.17528	0.347119	-0.100199	-0.0993494	-0.0992536	0.00225532	0.00203365	-0.607771	-0.127337	-0.354168	0.436937	1.75001	-0.595981	-0.200733	-0.30055	0.349745	1.71848
1.66	-0.486697	0.0156313	0.0285107	-0.325218	0.735986	-0.601949	1.40988	-0.256852	-0.0391814	1.30526	0.37832	-0.243555	-0.0993494	1.38667	-0.193278	0.0125317	1.27506	0.395936	-0.106578	-0.0993494	-0.105702	0.00521064	0.00210212	-0.58917	-0.124156	-0.355492	0.418753	1.7455	-0.583644	-0.185562	-0.328109	0.341829	1.71352
1.67	-0.498382	0.0135271	0.0265755	-0.320572	0.71488	-0.602268	1.46853	-0.255777	-0.0190699	1.38987	0.408404	-0.250206	-0.0993494	1.44736	-0.198114	0.0277467	1.36455	0.429871	-0.108663	-0.0993494	-0.11462	0.00794818	0.00134961	-0.56411	-0.12192	-0.35414	0.400487	1.73958	-0.564608	-0.170804	-0.357168	0.335763	1.70984
1.68	-0.508736	0.0117109	0.0253938	-0.31605	0.695532	-0.602652	1.51963	-0.255927	-0.00296485	1.46352	0.433253	-0.250378	-0.0993494	1.50154	-0.202643	0.0401404	1.44356	0.454877	-0.106385	-0.0993494	-0.125742	0.010374	2.8034e-05	-0.533326	-0.120943	-0.349197	0.383037	1.7314	-0.539393	-0.157134	-0.384569	0.331841	1.70659
1.69	-0.517708	0.0101852	0.0247352	-0.311623	0.677903	-0.603077	1.56349	-0.257031	0.0101427	1.52739	0.455887	-0.245437	-0.0993494	1.54863	-0.206867	0.0505361	1.51239	0.475574	-0.100237	-0.0993494	-0.138513	0.0124793	-0.00162728	-0.497537	-0.12152	-0.340011	0.367281	1.72029	-0.508528	-0.145223	-0.406699	0.330011	1.70233
1.7	-0.525383	0.00889337	0.0243381	-0.307301	0.661929	-0.60351	1.60083	-0.258645	0.0211431	1.58284	0.477738	-0.23712	-0.0993494	1.58872	-0.210744	0.0597323	1.5718	0.494944	-0.0912299	-0.0993494	-0.152283	0.0143023	-0.00341923	-0.457366	-0.123865	-0.326347	0.354034	1.70593	-0.472474	-0.135654	-0.42008	0.329918	1.69511
1.71	-0.531868	0.0077737	0.0239402	-0.30312	0.647541	-0.603913	1.63256	-0.260251	0.0307476	1.63116	0.499093	-0.227226	-0.0993494	1.62241	-0.214195	0.0684167	1.62287	0.514365	-0.0807257	-0.0993494	-0.16647	0.0158715	-0.00521522	-0.413286	-0.128056	-0.308433	0.343995	1.68833	-0.431569	-0.128859	-0.422	0.330996	1.683
1.72	-0.537221	0.00679111	0.023333	-0.299133	0.634677	-0.604249	1.65947	-0.261369	0.0394607	1.67342	0.5196	-0.217363	-0.0993494	1.65046	-0.217105	0.0770821	1.66681	0.533902	-0.0701828	-0.0993494	-0.180645	0.0171745	-0.00697684	-0.365604	-0.133997	-0.286912	0.337681	1.66794	-0.386005	-0.125073	-0.411071	0.332606	1.66473
1.73	-0.541418	0.00593987	0.0224173	-0.295394	0.623296	-0.604486	1.68213	-0.26165	0.0475853	1.71042	0.538703	-0.208802	-0.0993494	1.67368	-0.219361	0.0859744	1.70477	0.552771	-0.0608804	-0.0993494	-0.194529	0.0181602	-0.00877472	-0.31448	-0.14142	-0.262738	0.335349	1.64557	-0.335852	-0.124306	-0.387549	0.334189	1.64024
1.74	-0.544361	0.00523883	0.0212306	-0.291945	0.613376	-0.604602	1.70079	-0.26094	0.0552593	1.7427	0.555924	-0.202383	-0.0993494	1.69268	-0.22087	0.0950783	1.73768	0.569864	-0.0537053	-0.0993494	-0.207936	0.0187562	-0.0107735	-0.259967	-0.14992	-0.237046	0.336933	1.62229	-0.281113	-0.126346	-0.353369	0.335391	1.61096
1.75	-0.545915	0.00473154	0.0199286	-0.28881	0.604912	-0.604591	1.71553	-0.259295	0.0625135	1.77057	0.570987	-0.198497	-0.0993494	1.70785	-0.221584	0.104141	1.7662	0.584205	-0.0490541	-0.0993494	-0.220683	0.0188862	-0.0131798	-0.20206	-0.159022	-0.211026	0.342003	1.5992	-0.221792	-0.130798	-0.311838	0.33612	1.57967
1.76	-0.545957	0.00448208	0.0187224	-0.285984	0.597902	-0.604466	1.72631	-0.256947	0.0693257	1.79426	0.583831	-0.197113	-0.0993494	1.71931	-0.221518	0.112743	1.79068	0.595255	-0.0468606	-0.0993494	-0.232504	0.0184901	-0.0161631	-0.140734	-0.168279	-0.185794	0.349765	1.57716	-0.157935	-0.137146	-0.267035	0.336509	1.54977
1.77	-0.544442	0.00455234	0.0178018	-0.28344	0.592339	-0.604255	1.73309	-0.254209	0.0756489	1.81389	0.594541	-0.19789	-0.0993494	1.72701	-0.220751	0.120414	1.81127	0.602999	-0.0467208	-0.0993494	-0.242992	0.0175547	-0.0197835	-0.0759606	-0.177353	-0.162336	0.359129	1.55672	-0.0896539	-0.144811	-0.223174	0.336838	1.52435
1.78	-0.541459	0.00495665	0.0172829	-0.281135	0.588204	-0.604002	1.73598	-0.251388	0.0814006	1.82956	0.603273	-0.200326	-0.0993494	1.73092	-0.219416	0.126773	1.82797	0.607858	-0.0480603	-0.0993494	-0.251601	0.0161565	-0.0239613	-0.00771578	-0.186065	-0.141488	0.368853	1.53832	-0.0171371	-0.153197	-0.184101	0.337464	1.50555
1.79	-0.537262	0.00560853	0.017197	-0.27902	0.585452	-0.603753	1.73519	-0.248723	0.0864271	1.84135	0.610199	-0.20391	-0.0993494	1.73114	-0.21767	0.131641	1.84074	0.610478	-0.0502826	-0.0993494	-0.257714	0.0145042	-0.0284919	0.0640036	-0.194399	-0.123964	0.377788	1.52244	0.0593537	-0.161728	-0.152991	0.338819	1.49433
1.8	-0.53227	0.00629232	0.0175131	-0.277046	0.584013	-0.603551	1.73111	-0.246361	0.0904836	1.84933	0.615485	-0.208217	-0.0993494	1.72804	-0.215659	0.135108	1.84959	0.611509	-0.0528612	-0.0993494	-0.260747	0.0129472	-0.033097	0.139143	-0.202465	-0.110395	0.38519	1.50977	0.139483	-0.169886	-0.132189	0.341467	1.49053
1.81	-0.527031	0.00669188	0.0181643	-0.275169	0.583792	-0.603423	1.72425	-0.244349	0.0932656	1.85358	0.619293	-0.212953	-0.0993494	1.72227	-0.213517	0.1375	1.85464	0.611448	-0.0553726	-0.0993494	-0.260276	0.0119186	-0.0374926	0.217546	-0.210427	-0.101319	0.391002	1.50128	0.222843	-0.177256	-0.123096	0.346164	1.49327
1.82	-0.522148	0.00647903	0.0190626	-0.273353	0.584668	-0.603376	1.7152	-0.24263	0.094495	1.85426	0.621774	-0.217968	-0.0993494	1.71469	-0.211373	0.139263	1.85611	0.610587	-0.0574988	-0.0993494	-0.256112	0.011815	-0.0414429	0.298918	-0.218442	-0.0969837	0.396032	1.49784	0.308966	-0.183588	-0.125952	0.353849	1.50127
1.83	-0.518159	0.0054207	0.0201011	-0.271566	0.586502	-0.603391	1.70459	-0.241045	0.0940215	1.85157	0.623057	-0.223255	-0.0993494	1.70615	-0.209379	0.140811	1.85432	0.609052	-0.059028	-0.0993494	-0.248297	0.0128619	-0.0447647	0.382833	-0.226637	-0.0970425	0.401858	1.4998	0.39742	-0.188854	-0.139483	0.365429	1.51312
1.84	-0.515367	0.003459	0.0211604	-0.269791	0.589157	-0.603428	1.6929	-0.239349	0.0918975	1.84581	0.623221	-0.228926	-0.0993494	1.69731	-0.207705	0.142401	1.84967	0.606876	-0.0598755	-0.0993494	-0.237008	0.0150162	-0.0472706	0.468812	-0.235149	-0.100227	0.41037	1.50687	0.488	-0.193274	-0.160467	0.38131	1.52737
1.85	-0.51378	0.000706573	0.0221287	-0.268024	0.592516	-0.603433	1.68045	-0.237273	0.0883585	1.83733	0.622277	-0.235165	-0.0993494	1.68842	-0.206473	0.144117	1.8425	0.604065	-0.060143	-0.0993494	-0.222571	0.0180005	-0.0487989	0.556435	-0.244163	-0.104292	0.423489	1.51811	0.580757	-0.197293	-0.184009	0.40139	1.54244
1.86	-0.513144	-0.0026062	0.0229273	-0.266268	0.596505	-0.603361	1.66729	-0.234592	0.083748	1.82643	0.620164	-0.242164	-0.0993494	1.67932	-0.205672	0.145905	1.83307	0.600616	-0.0601936	-0.0993494	-0.205535	0.021417	-0.0493059	0.645507	-0.253934	-0.106124	0.442974	1.53192	0.675901	-0.201555	-0.204294	0.425327	1.55646
1.87	-0.513053	-0.00618791	0.0235234	-0.264522	0.601104	-0.603185	1.65326	-0.231185	0.0784409	1.81332	0.616759	-0.250055	-0.0993494	1.66953	-0.205109	0.147633	1.82145	0.596515	-0.0606637	-0.0993494	-0.186652	0.0248631	-0.0489301	0.736159	-0.264769	-0.102037	0.470244	1.54608	0.773661	-0.206856	-0.215421	0.452771	1.56716
1.88	-0.513113	-0.00973453	0.0239189	-0.262773	0.606335	-0.602897	1.63817	-0.227052	0.0727883	1.7981	0.611917	-0.258866	-0.0993494	1.65842	-0.204461	0.149123	1.80755	0.591724	-0.0623506	-0.0993494	-0.166714	0.0280061	-0.0479504	0.828833	-0.276997	-0.0882556	0.506177	1.5581	0.874194	-0.214045	-0.212127	0.483356	1.572
1.89	-0.513096	-0.0129821	0.0241237	-0.260989	0.612241	-0.602516	1.62184	-0.222277	0.0670721	1.78074	0.605509	-0.26853	-0.0993494	1.64545	-0.20339	0.15019	1.79123	0.586191	-0.0660113	-0.0993494	-0.146323	0.030629	-0.0466705	0.924175	-0.290901	-0.0615386	0.55092	1.56562	0.97757	-0.22383	-0.190491	0.516517	1.56864
1.9	-0.513018	-0.0157564	0.0241325	-0.259112	0.618866	-0.602073	1.60427	-0.216983	0.0614665	1.7611	0.59746	-0.278926	-0.0993494	1.63035	-0.201661	0.150674	1.77231	0.579857	-0.0721912	-0.0993494	-0.125744	0.032655	-0.0453172	1.0229	-0.306595	-0.0197616	0.603735	1.56667	1.08379	-0.236558	-0.148539	0.551286	1.55547
1.91	-0.513116	-0.0179954	0.023917	-0.257064	0.626258	-0.601607	1.5855	-0.211296	0.0560234	1.73896	0.587765	-0.289921	-0.0993494	1.61309	-0.199201	0.150475	1.7506	0.572664	-0.0811543	-0.0993494	-0.104914	0.0341439	-0.0440021	1.12567	-0.323861	0.0376697	0.662905	1.55985	1.19284	-0.25206	-0.0865253	0.586162	1.53203
1.92	-0.513745	-0.0197408	0.0234316	-0.254753	0.634469	-0.601158	1.56564	-0.205333	0.0506843	1.714	0.5765	-0.301392	-0.0993494	1.59384	-0.19609	0.149574	1.72592	0.564562	-0.0929032	-0.0993494	-0.0835441	0.0352616	-0.0427383	1.23298	-0.342004	0.109638	0.725747	1.54456	1.30465	-0.269608	-0.00674667	0.619064	1.49943
